<?xml version="1.0" encoding="UTF-8"?>
<svg id="Camada_2" data-name="Camada 2" xmlns="http://www.w3.org/2000/svg" viewBox="0 0 325.75 70.03">
  <defs>
    <style>
      .cls-1 {
        fill: #6c90b2;
      }

      .cls-2 {
        fill: #e0dfec;
      }

      .cls-3 {
        fill: #c7a7cf;
      }
    </style>
  </defs>
  <g id="Camada_1-2" data-name="Camada 1">
    <g>
      <g>
        <path class="cls-2" d="m220.03,43.21c0-2.34.67-4.35,2.02-6.05,1.34-1.69,3.2-3,5.58-3.94,2.38-.93,5.12-1.39,8.24-1.39,1.82,0,3.72.14,5.69.43,1.97.29,3.72.72,5.26,1.3v-3.16c0-3.15-.94-5.65-2.81-7.51-1.87-1.86-4.46-2.79-7.78-2.79-2.02,0-4,.37-5.94,1.12-1.94.74-3.97,1.84-6.08,3.28l-1.87-3.46c2.45-1.68,4.85-2.94,7.2-3.78,2.35-.84,4.75-1.26,7.2-1.26,4.61,0,8.25,1.31,10.94,3.94,2.69,2.62,4.03,6.25,4.03,10.87v17.24c0,.67.14,1.16.43,1.47.29.31.74.49,1.37.54v3.89c-.53.05-.98.1-1.37.14-.38.05-.67.05-.86,0-1.2-.05-2.11-.43-2.74-1.15s-.96-1.49-1.01-2.3l-.07-2.74c-1.68,2.16-3.86,3.83-6.55,5-2.69,1.18-5.42,1.76-8.21,1.76-2.4,0-4.57-.51-6.52-1.54-1.94-1.03-3.46-2.41-4.54-4.15-1.08-1.74-1.62-3.66-1.62-5.76Zm25.13,2.85c.53-.67.94-1.31,1.22-1.93.29-.62.43-1.17.43-1.64v-5.42c-1.63-.62-3.32-1.09-5.08-1.43-1.75-.33-3.52-.5-5.29-.5-3.5,0-6.34.69-8.5,2.07-2.16,1.38-3.24,3.26-3.24,5.64,0,1.38.36,2.68,1.08,3.89.72,1.21,1.78,2.21,3.17,3,1.39.79,3.02,1.18,4.9,1.18,2.35,0,4.55-.45,6.59-1.36,2.04-.9,3.61-2.07,4.72-3.5Zm-6.84-36.76l-3.24-1.22,1.75-2.76c1.55-2.45,4.25-3.93,7.15-3.93h0c.21,0,.34.25.2.42l-5.87,7.5Z"/>
        <path class="cls-2" d="m274.2,54.7c-2.54,0-4.9-.53-7.06-1.58-2.16-1.05-4.02-2.48-5.58-4.28-1.56-1.8-2.77-3.85-3.64-6.16-.86-2.3-1.3-4.68-1.3-7.13,0-2.64.42-5.12,1.26-7.45s2.04-4.4,3.6-6.23c1.56-1.82,3.39-3.25,5.51-4.28,2.11-1.03,4.46-1.55,7.06-1.55,3.22,0,6.01.8,8.39,2.41,2.38,1.61,4.38,3.61,6.01,6.01v-7.85h4.39v37.55c0,3.45-.83,6.36-2.48,8.73-1.66,2.37-3.89,4.15-6.7,5.35-2.81,1.2-5.87,1.79-9.18,1.79-4.27,0-7.73-.77-10.37-2.3-2.64-1.54-4.8-3.6-6.48-6.19l3.02-2.38c1.49,2.35,3.47,4.1,5.94,5.26,2.47,1.15,5.1,1.73,7.88,1.73,2.45,0,4.69-.44,6.73-1.31s3.67-2.18,4.9-3.92c1.22-1.74,1.84-3.94,1.84-6.58v-7.42c-1.44,2.35-3.41,4.24-5.9,5.65-2.5,1.42-5.11,2.12-7.85,2.12Zm1.37-4.1c1.49,0,2.92-.26,4.28-.79,1.37-.53,2.63-1.24,3.78-2.12,1.15-.89,2.11-1.88,2.88-2.99.77-1.1,1.25-2.23,1.44-3.38v-11.59c-.72-1.82-1.75-3.44-3.1-4.86-1.34-1.42-2.87-2.52-4.57-3.31-1.71-.79-3.47-1.19-5.29-1.19-2.11,0-4,.44-5.65,1.33-1.66.89-3.05,2.06-4.18,3.53-1.13,1.46-2,3.11-2.63,4.93-.62,1.83-.94,3.65-.94,5.47,0,2.02.36,3.92,1.08,5.72.72,1.8,1.72,3.41,2.99,4.82,1.27,1.42,2.76,2.51,4.46,3.28,1.7.77,3.52,1.15,5.44,1.15Z"/>
        <path class="cls-2" d="m299.79,8.58V3.83c0-1.35,1.1-2.45,2.45-2.45h0c1.35,0,2.45,1.1,2.45,2.45v4.75h-4.9Zm0,45.36V16.43h4.9v37.51h-4.9Z"/>
        <path class="cls-2" d="m311.71,1.38h4.9v44.32c0,1.88.34,3.12,1.01,3.7.67.58,1.49.87,2.45.87.86,0,1.73-.1,2.59-.29.86-.19,1.61-.38,2.23-.58l.86,3.96c-.91.38-2.03.7-3.35.94-1.32.24-2.46.36-3.42.36-2.21,0-3.97-.65-5.29-1.95-1.32-1.3-1.98-3.09-1.98-5.36V1.38Z"/>
        <path class="cls-1" d="m209.54,30.48c-.91-2.33-2.22-4.39-3.92-6.17-1.7-1.78-3.74-3.19-6.12-4.21-2.38-1.02-5.03-1.53-7.96-1.53s-5.58.51-7.96,1.53c-2.38,1.02-4.42,2.43-6.12,4.21-1.7,1.78-3.01,3.84-3.92,6.17-.91,2.33-1.37,4.8-1.37,7.42,0,2.23.35,4.33,1.01,6.33l-5.47-7.45,13.54-18.72h-8.57l-8.86,12.79-.65,1.21-.65-1.21-8.58-11.26c-.65-.85-1.65-1.36-2.73-1.39l-5.75-.13h0s-7.92,0-7.92,0v23.3c-.72,1.7-1.67,3.16-2.84,4.37-1.18,1.21-2.47,2.12-3.89,2.73-1.42.62-2.87.92-4.36.92-2.35,0-4.14-.84-5.36-2.53-1.22-1.69-1.84-4.2-1.84-7.53v-21.26h-7.92v22.87c0,3.11.39,5.75,1.17,7.92,0,0,0,0,0,0-1.08.12-1.94-.16-2.59-.84-.55-.58-.83-1.78-.83-3.6V15.18c0-3.84-1.21-6.97-3.64-9.4-2.42-2.42-6.16-3.64-11.2-3.64-3.12,0-5.78.58-7.99,1.73-2.21,1.15-3.89,2.8-5.04,4.93-1.15,2.14-1.73,4.72-1.73,7.74v2.16h-5.04v6.12h5.04v30.6h7.92v-30.6h6.91v-6.12h-6.91v-.94c.05-1.73.31-3.25.79-4.57.48-1.32,1.22-2.36,2.23-3.13,1.01-.77,2.33-1.15,3.96-1.15,1.82,0,3.21.39,4.18,1.16.96.77,1.63,1.76,2.02,2.97.38,1.21.58,2.48.58,3.83v31.1c0,2.51.77,4.5,2.3,5.97,1.54,1.47,3.67,2.21,6.41,2.21.96,0,1.97-.1,3.02-.3,1.05-.2,2.06-.42,3.02-.67.52-.14.98-.27,1.37-.41,1.66.91,3.65,1.37,5.98,1.37,3.22,0,6.17-.7,8.86-2.11,2.69-1.4,4.87-3.46,6.55-6.18,0,0,.04,5.64,4.57,7.22,7.15,2.49,11.81-3.98,11.81-3.98l8.09-9.54.65,1.14s5.52,10.54,11.14,12.65c13.35,5.02,22.16,1.35,24.53.34,2.38-1.02,4.42-2.44,6.12-4.24,1.7-1.81,3.01-3.87,3.92-6.17.91-2.31,1.37-4.77,1.37-7.38s-.46-5.09-1.37-7.42Zm-57.07,14.76c-1.15,1.38-2.95,3.08-4.83,3.13-1.58.04-2.04-1.16-2.16-2.14v-27.66l13.17,18.28-6.18,8.39Zm48.79-.99c-1.01,1.92-2.36,3.43-4.07,4.54-1.71,1.11-3.59,1.67-5.65,1.67s-4.01-.54-5.69-1.63c-1.68-1.09-3.02-2.58-4.03-4.47-1.01-1.89-1.51-4.02-1.51-6.39s.5-4.55,1.51-6.42,2.35-3.37,4.03-4.51c1.68-1.14,3.58-1.7,5.69-1.7s3.95.56,5.65,1.67c1.7,1.11,3.06,2.62,4.07,4.51,1.01,1.89,1.51,4.02,1.51,6.39s-.5,4.44-1.51,6.35Z"/>
        <path class="cls-1" d="m15.89,69.31c-2.47,0-4.89-.57-7.12-1.72C.48,63.35-2.45,52.47,2.23,43.34L18.42,11.74C23.1,2.61,33.64-1.36,41.93,2.88l-3.01,5.88c-5.04-2.58-11.6.1-14.61,5.99l-16.19,31.6c-3.02,5.89-1.37,12.77,3.67,15.36,2.38,1.22,5.17,1.31,7.88.25,2.85-1.11,5.24-3.32,6.73-6.24l16.16-31.54c2.33-5.01,9.13-13.47,18.38-10.08l-2.27,6.21c-5.9-2.16-9.97,6.35-10.14,6.72l-.06.11-16.19,31.6c-2.23,4.36-5.86,7.69-10.21,9.39-2.04.79-4.12,1.19-6.17,1.19Z"/>
        <path class="cls-1" d="m31,68.15c-2.47,0-4.89-.57-7.12-1.72l3.01-5.88c2.38,1.22,5.17,1.31,7.88.25,2.85-1.11,5.24-3.32,6.73-6.24l16.19-31.6c3.02-5.89,1.37-12.77-3.67-15.36-2.38-1.22-5.17-1.31-7.88-.25-2.85,1.11-5.24,3.32-6.73,6.24l-16.16,31.54c-1.96,4.21-7.07,10.86-14.15,10.86-1.34,0-2.75-.24-4.23-.78l2.27-6.21c5.91,2.16,9.97-6.35,10.14-6.72l.06-.11,16.19-31.6c2.23-4.36,5.86-7.69,10.21-9.39,4.49-1.75,9.21-1.56,13.29.53,8.28,4.25,11.22,15.13,6.54,24.25l-16.19,31.6c-2.23,4.36-5.86,7.69-10.21,9.39-2.04.79-4.12,1.19-6.17,1.19Z"/>
      </g>
      <circle class="cls-3" cx="39.21" cy="6.02" r="3.88"/>
      <circle class="cls-3" cx="26.59" cy="63.1" r="3.88"/>
    </g>
  </g>
</svg>