<svg width="220" height="47" viewBox="0 0 220 47" fill="none" xmlns="http://www.w3.org/2000/svg">
<path d="M148.6 29C148.6 27.4295 149.053 26.0805 149.965 24.9396C150.87 23.8053 152.126 22.9262 153.733 22.2953C155.341 21.6711 157.191 21.3624 159.298 21.3624C160.527 21.3624 161.811 21.4564 163.141 21.651C164.472 21.8456 165.653 22.1342 166.694 22.5235V20.4027C166.694 18.2886 166.059 16.6107 164.796 15.3624C163.533 14.1141 161.784 13.4899 159.541 13.4899C158.177 13.4899 156.84 13.7382 155.53 14.2416C154.22 14.7382 152.849 15.4765 151.424 16.4429L150.161 14.1208C151.815 12.9933 153.436 12.1476 155.023 11.5839C156.61 11.0201 158.231 10.7382 159.886 10.7382C162.999 10.7382 165.458 11.6174 167.274 13.3825C169.091 15.1409 169.996 17.5772 169.996 20.6845V32.255C169.996 32.7047 170.091 33.0335 170.286 33.2416C170.482 33.4496 170.786 33.5704 171.212 33.604V36.2147C170.854 36.2483 170.55 36.2819 170.286 36.3087C170.03 36.3423 169.834 36.3423 169.706 36.3087C168.895 36.2751 168.281 36.0201 167.855 35.5369C167.43 35.0537 167.207 34.5369 167.173 33.9933L167.126 32.1543C165.991 33.604 164.519 34.7248 162.702 35.51C160.885 36.302 159.042 36.6912 157.157 36.6912C155.536 36.6912 154.071 36.349 152.754 35.6577C151.444 34.9664 150.417 34.0402 149.688 32.8725C148.958 31.7047 148.594 30.4161 148.594 29.0067L148.6 29ZM165.572 30.9127C165.93 30.4631 166.207 30.0335 166.396 29.6174C166.592 29.2013 166.687 28.8322 166.687 28.5168V24.8792C165.586 24.4631 164.445 24.1476 163.256 23.9194C162.074 23.698 160.879 23.5839 159.683 23.5839C157.319 23.5839 155.401 24.047 153.943 24.9731C152.484 25.8993 151.754 27.161 151.754 28.7584C151.754 29.6845 151.998 30.557 152.484 31.3691C152.97 32.1812 153.686 32.8523 154.625 33.3825C155.564 33.9127 156.664 34.1745 157.934 34.1745C159.521 34.1745 161.007 33.8725 162.385 33.2617C163.762 32.6577 164.823 31.8725 165.572 30.9127ZM160.953 6.24159L158.765 5.42279L159.947 3.57045C160.993 1.92615 162.817 0.932861 164.775 0.932861C164.917 0.932861 165.005 1.10065 164.911 1.21474L160.946 6.2483L160.953 6.24159Z" fill="#6B8FB1"/>
<path d="M185.185 36.7114C183.47 36.7114 181.876 36.3557 180.417 35.651C178.959 34.9463 177.702 33.9866 176.649 32.7786C175.595 31.5705 174.778 30.1947 174.19 28.6443C173.61 27.1007 173.312 25.5034 173.312 23.8591C173.312 22.0873 173.596 20.4229 174.163 18.8591C174.731 17.2953 175.541 15.9061 176.595 14.6779C177.648 13.4564 178.884 12.4967 180.316 11.8054C181.741 11.1141 183.328 10.7651 185.084 10.7651C187.259 10.7651 189.143 11.302 190.75 12.3826C192.358 13.4631 193.709 14.8054 194.809 16.4161V11.1477H197.774V36.349C197.774 38.6645 197.214 40.6175 196.099 42.2081C194.978 43.7987 193.472 44.9933 191.574 45.7987C189.677 46.6041 187.61 47 185.375 47C182.491 47 180.154 46.4833 178.371 45.4564C176.588 44.4229 175.129 43.0403 173.995 41.302L176.034 39.7047C177.041 41.2819 178.378 42.4564 180.046 43.2349C181.714 44.0067 183.49 44.396 185.368 44.396C187.022 44.396 188.535 44.1007 189.913 43.5168C191.291 42.9329 192.392 42.0537 193.222 40.8859C194.046 39.7182 194.465 38.2416 194.465 36.4698V31.49C193.492 33.0671 192.162 34.3356 190.48 35.2819C188.792 36.2349 187.029 36.7047 185.179 36.7047L185.185 36.7114ZM186.111 33.9598C187.117 33.9598 188.083 33.7853 189.001 33.4296C189.926 33.0739 190.777 32.5973 191.554 32.0067C192.331 31.4094 192.979 30.745 193.499 30C194.019 29.2618 194.343 28.5034 194.472 27.7316V19.9531C193.985 18.7316 193.29 17.6443 192.378 16.6913C191.473 15.7383 190.44 15 189.292 14.4698C188.137 13.9396 186.948 13.6712 185.719 13.6712C184.294 13.6712 183.017 13.9665 181.903 14.5638C180.782 15.1611 179.843 15.9463 179.08 16.9329C178.317 17.9128 177.729 19.0202 177.304 20.2416C176.885 21.4698 176.669 22.6913 176.669 23.9128C176.669 25.2685 176.912 26.5437 177.398 27.7517C177.885 28.9598 178.56 30.0403 179.418 30.9866C180.276 31.9396 181.282 32.6712 182.43 33.188C183.578 33.7047 184.807 33.9598 186.104 33.9598H186.111Z" fill="#6B8FB1"/>
<path d="M202.468 5.75836V2.57044C202.468 1.6644 203.211 0.926147 204.122 0.926147C205.034 0.926147 205.777 1.6644 205.777 2.57044V5.75836H202.468ZM202.468 36.2013V11.0268H205.777V36.2013H202.468Z" fill="#6B8FB1"/>
<path d="M210.519 0.926147H213.828V30.6711C213.828 31.9329 214.057 32.7651 214.51 33.1543C214.962 33.5436 215.516 33.7382 216.165 33.7382C216.745 33.7382 217.333 33.6711 217.914 33.5436C218.495 33.4161 219.001 33.2886 219.42 33.1543L220.001 35.8121C219.386 36.0671 218.63 36.2819 217.738 36.4429C216.847 36.604 216.077 36.6845 215.428 36.6845C213.936 36.6845 212.747 36.2483 211.856 35.3758C210.964 34.5033 210.519 33.302 210.519 31.7785V0.926147Z" fill="#6B8FB1"/>
<path d="M141.516 20.4564C140.902 18.8927 140.017 17.5101 138.869 16.3155C137.721 15.1208 136.343 14.1745 134.735 13.49C133.128 12.8054 131.338 12.4631 129.36 12.4631C127.381 12.4631 125.591 12.8054 123.984 13.49C122.376 14.1745 120.999 15.1208 119.85 16.3155C118.702 17.5101 117.818 18.8927 117.203 20.4564C116.588 22.0202 116.278 23.6779 116.278 25.4363C116.278 26.9329 116.514 28.3423 116.96 29.6846L113.266 24.6846L122.41 12.1208H116.622L110.638 20.7047L110.2 21.5168L109.761 20.7047L103.966 13.1477C103.527 12.5772 102.852 12.2349 102.122 12.2148L98.2388 12.1276H92.8899V27.7651C92.4036 28.9061 91.7621 29.8859 90.9719 30.698C90.1749 31.5101 89.3037 32.1208 88.3447 32.5302C87.3857 32.9463 86.4064 33.1477 85.4001 33.1477C83.813 33.1477 82.6041 32.5839 81.7802 31.4497C80.9562 30.3155 80.5375 28.6309 80.5375 26.396V12.1276H75.1886V27.4765C75.1886 29.5638 75.452 31.3356 75.9788 32.792C75.2494 32.8725 74.6686 32.6846 74.2296 32.2282C73.8581 31.839 73.669 31.0336 73.669 29.8121V10.188C73.669 7.61078 72.8518 5.51011 71.2107 3.87923C69.5763 2.25507 67.0505 1.43628 63.6466 1.43628C61.5395 1.43628 59.743 1.82554 58.2505 2.59735C56.7579 3.36917 55.6233 4.47655 54.8466 5.90608C54.07 7.34232 53.6783 9.07386 53.6783 11.1007V12.5504H50.2744V16.6578H53.6783V37.1947H59.0271V16.6578H63.6939V12.5504H59.0271V11.9195C59.0609 10.7584 59.2365 9.73829 59.5607 8.85239C59.8849 7.96648 60.3846 7.26849 61.0667 6.75172C61.7489 6.23494 62.6403 5.9799 63.7412 5.9799C64.9703 5.9799 65.9091 6.24165 66.5642 6.75843C67.2126 7.27521 67.665 7.93963 67.9284 8.75172C68.1851 9.5638 68.3202 10.4161 68.3202 11.3222V32.1947C68.3202 33.8792 68.8402 35.2148 69.8735 36.2014C70.9136 37.188 72.3521 37.6846 74.2026 37.6846C74.8509 37.6846 75.533 37.6175 76.2422 37.4833C76.9513 37.349 77.6334 37.2014 78.2818 37.0336C78.633 36.9396 78.9436 36.8524 79.207 36.7584C80.3281 37.3692 81.6721 37.6779 83.2457 37.6779C85.4204 37.6779 87.4127 37.2081 89.2294 36.2618C91.0462 35.3222 92.5185 33.9396 93.6531 32.1141C93.6531 32.1141 93.6801 35.8994 96.7395 36.9598C101.568 38.6309 104.716 34.2886 104.716 34.2886L110.179 27.8859L110.618 28.651C110.618 28.651 114.346 35.7249 118.142 37.141C127.158 40.5101 133.108 38.047 134.708 37.3692C136.316 36.6846 137.694 35.7316 138.842 34.5235C139.99 33.3088 140.875 31.9262 141.489 30.3826C142.104 28.8323 142.414 27.1812 142.414 25.4296C142.414 23.6779 142.104 22.0135 141.489 20.4497L141.516 20.4564ZM102.973 30.3625C102.196 31.2886 100.981 32.4296 99.7111 32.4631C98.644 32.49 98.3333 31.6846 98.2523 31.0269V12.4631L107.147 24.7316L102.973 30.3625ZM135.924 29.698C135.242 30.9866 134.33 32 133.175 32.745C132.021 33.49 130.751 33.8658 129.36 33.8658C127.968 33.8658 126.651 33.5034 125.517 32.7719C124.382 32.0403 123.477 31.0403 122.795 29.7719C122.113 28.5034 121.775 27.0739 121.775 25.4833C121.775 23.8927 122.113 22.4296 122.795 21.1745C123.477 19.9195 124.382 18.9128 125.517 18.1477C126.651 17.3826 127.935 17.0068 129.36 17.0068C130.785 17.0068 132.027 17.3826 133.175 18.1276C134.324 18.8725 135.242 19.8859 135.924 21.1544C136.606 22.4229 136.944 23.8524 136.944 25.443C136.944 27.0336 136.606 28.4229 135.924 29.7047V29.698Z" fill="#242B57"/>
<path d="M10.7318 46.5168C9.06363 46.5168 7.42925 46.1342 5.92319 45.3624C0.324416 42.5168 -1.6544 35.2147 1.5063 29.0872L12.4405 7.87917C15.6012 1.75166 22.7195 -0.912772 28.3183 1.93287L26.2854 5.87917C22.8816 4.14763 18.4512 5.94629 16.4184 9.89931L5.4842 31.1074C3.4446 35.0604 4.55895 39.6778 7.96279 41.4161C9.57016 42.2349 11.4544 42.2953 13.2847 41.5839C15.2095 40.8389 16.8236 39.3557 17.8299 37.396L28.7438 16.2282C30.3174 12.8658 34.9098 7.1879 41.157 9.46307L39.6239 13.6309C35.6392 12.1812 32.8905 17.8926 32.7757 18.1409L32.7352 18.2147L21.801 39.4228C20.2949 42.349 17.8434 44.5839 14.9055 45.7248C13.5278 46.255 12.123 46.5235 10.7385 46.5235L10.7318 46.5168Z" fill="#242B57"/>
<path d="M20.9363 45.7383C19.2682 45.7383 17.6338 45.3557 16.1277 44.5839L18.1606 40.6376C19.768 41.4564 21.6522 41.5168 23.4825 40.8054C25.4073 40.0604 27.0214 38.5772 28.0277 36.6175L38.9618 15.4094C41.0014 11.4564 39.8871 6.83894 36.4832 5.10068C34.8759 4.28189 32.9916 4.22149 31.1614 4.93289C29.2366 5.67786 27.6224 7.16108 26.6162 9.12081L15.7023 30.2886C14.3785 33.1141 10.9274 37.5772 6.14585 37.5772C5.24087 37.5772 4.2886 37.4161 3.28906 37.0537L4.82214 32.8859C8.81354 34.3356 11.5555 28.6242 11.6703 28.3758L11.7109 28.302L22.645 7.09397C24.1511 4.16779 26.6026 1.93289 29.5405 0.791955C32.5729 -0.382542 35.7606 -0.255025 38.5161 1.14766C44.1081 4.00001 46.0937 11.302 42.933 17.4228L31.9988 38.6309C30.4927 41.5571 28.0412 43.792 25.1033 44.9329C23.7256 45.4631 22.3208 45.7316 20.9363 45.7316V45.7383Z" fill="#242B57"/>
<path d="M26.4817 6.59734C27.929 6.59734 29.1022 5.43147 29.1022 3.99331C29.1022 2.55514 27.929 1.38928 26.4817 1.38928C25.0345 1.38928 23.8613 2.55514 23.8613 3.99331C23.8613 5.43147 25.0345 6.59734 26.4817 6.59734Z" fill="#C6A6CE"/>
<path d="M17.7894 45.0872C19.2366 45.0872 20.4098 43.9213 20.4098 42.4832C20.4098 41.045 19.2366 39.8792 17.7894 39.8792C16.3421 39.8792 15.1689 41.045 15.1689 42.4832C15.1689 43.9213 16.3421 45.0872 17.7894 45.0872Z" fill="#C6A6CE"/>
</svg>
